<?xml version="1.0" encoding="UTF-8"?>
<svg id="Layer_2" data-name="Layer 2" xmlns="http://www.w3.org/2000/svg" viewBox="0 0 1547.59 1095.3">
  <defs>
    <style>
      .cls-1 {
        fill: #c7a752;
      }
    </style>
  </defs>
  <g id="Layer_5" data-name="Layer 5">
    <path class="cls-1" d="M1547.1,325.52c-10.72-130.67-163.93-255.16-315.71-302.8-205.57-64.54-395.35,11.68-451.49,187.14-2.36,7.3-4.38,14.52-6.11,21.67-1.73-7.15-3.75-14.37-6.11-21.67C711.55,34.4,521.76-41.82,316.19,22.72,164.42,70.37,11.2,194.85.48,325.52c-7.56,97.85,74.64,184.5,155.32,182.51,71.07,1.02,126.64-65.22,86.71-188.48-42.71-132.99,17.58-213.45,105.95-241.2,94.14-29.55,178.12,7.74,206.71,89.99,74.62,231.19-479.93,437.11-383.7,737.9,54.92,160.99,251.87,228.59,451.68,165.86,22.48-7.06,44.83-15.68,66.66-25.64,29.26-13.35,57.58-29.12,83.98-46.8,26.4,17.69,54.71,33.45,83.98,46.8,21.82,9.96,44.17,18.59,66.66,25.64,199.81,62.73,396.75-4.88,451.68-165.86,96.23-300.79-458.32-506.7-383.7-737.9,28.59-82.26,112.57-119.55,206.71-89.99,88.38,27.74,148.66,108.21,105.95,241.2-39.92,123.26,15.64,189.5,86.71,188.48,80.68,1.99,162.88-84.66,155.32-182.51ZM1158.69,912.26c-22.49,79.93-140.51,123.51-221.2,98.18-34.15-10.72-65.32-34.77-83.8-71.56-15.6-33.97-46.03-52.34-79.9-54.64-33.88,2.3-64.31,20.68-79.91,54.67-18.48,36.78-49.65,60.82-83.79,71.54-80.69,25.33-198.71-18.25-221.2-98.18-53.35-161.62,325.94-315.12,384.9-555.62,58.96,240.49,438.25,394,384.9,555.62Z"/>
  </g>
</svg>